<svg width="319" height="145" viewBox="0 0 319 145" fill="none" xmlns="http://www.w3.org/2000/svg">
<path fill-rule="evenodd" clip-rule="evenodd" d="M58.3494 40.2358C58.3494 18.0526 76.2076 0 98.1412 0H132.932L124.784 21.4912H98.1412C93.2268 21.4991 88.5161 23.4769 85.042 26.9908C81.568 30.5047 79.6142 35.2678 79.6091 40.2358V63.5429L124.786 63.543V63.5358H140.905V123.587H124.786V85.0341H79.6091V103.777C79.6091 125.962 61.7425 144.01 39.8003 144.01C17.8582 144.01 0 125.958 0 103.777C0 81.5955 17.8539 63.5429 39.8003 63.5429H58.3494V40.2358ZM55.2248 114.189C57.262 111.107 58.3494 107.483 58.3494 103.777V85.0341H39.8088C36.1418 85.0341 32.5572 86.1334 29.5082 88.1928C26.4592 90.2523 24.0828 93.1794 22.6795 96.6041C21.2762 100.029 20.9091 103.797 21.6245 107.433C22.3399 111.069 24.1057 114.408 26.6986 117.029C29.2916 119.651 32.5952 121.436 36.1917 122.159C39.7883 122.882 43.5162 122.511 46.904 121.092C50.2919 119.674 53.1875 117.272 55.2248 114.189ZM158.122 63.5358V123.587H161.641H166.295H174.242V87.4882C174.242 85.8989 174.544 84.4232 175.15 83.061C175.831 81.6988 176.701 80.4879 177.761 79.4284C178.896 78.3689 180.22 77.5743 181.734 77.0445C183.323 76.4391 185.026 76.1364 186.842 76.1364C189.113 75.985 191.004 76.3634 192.518 77.2715C194.107 78.104 195.28 79.4284 196.037 81.2447C196.794 83.061 197.172 85.3314 197.172 88.0558V123.587H213.292V86.8071C213.292 81.4339 212.497 76.931 210.908 73.2984C209.394 69.5901 207.086 66.8279 203.983 65.0116C200.956 63.1953 197.172 62.2871 192.632 62.2871C189.302 62.2871 186.123 62.9683 183.096 64.3305C180.069 65.6927 177.458 67.509 175.263 69.7794C174.756 70.3048 174.285 70.8455 173.852 71.4014L173.561 63.5358H158.122ZM228.738 123.587V63.5358H244.177L244.468 71.4014C244.902 70.8455 245.372 70.3048 245.88 69.7794C248.074 67.509 250.685 65.6927 253.712 64.3305C256.74 62.9683 259.918 62.2871 263.248 62.2871C267.789 62.2871 271.573 63.1953 274.6 65.0116C277.703 66.8279 280.011 69.5901 281.524 73.2984C283.114 76.931 283.908 81.4339 283.908 86.8071V123.587H267.789V88.0558C267.789 85.3314 267.41 83.061 266.653 81.2447C265.897 79.4284 264.724 78.104 263.134 77.2715C261.621 76.3634 259.729 75.985 257.458 76.1364C255.642 76.1364 253.939 76.4391 252.35 77.0445C250.837 77.5743 249.512 78.3689 248.377 79.4284C247.318 80.4879 246.447 81.6988 245.766 83.061C245.161 84.4232 244.858 85.8989 244.858 87.4882V123.587H236.912H232.257H228.738ZM300.717 63.5358V123.587H316.836V63.5358H300.717ZM318.126 45.0738C318.126 50.2425 313.936 54.4325 308.767 54.4325C303.599 54.4325 299.409 50.2425 299.409 45.0738C299.409 39.905 303.599 35.715 308.767 35.715C313.936 35.715 318.126 39.905 318.126 45.0738ZM132.664 54.4326C137.833 54.4326 142.023 50.2426 142.023 45.0739C142.023 39.9051 137.833 35.7151 132.664 35.7151C127.495 35.7151 123.305 39.9051 123.305 45.0739C123.305 50.2426 127.495 54.4326 132.664 54.4326Z" fill="url(#paint0_linear_411_329)"/>
<defs>
<linearGradient id="paint0_linear_411_329" x1="234.5" y1="193.5" x2="309.5" y2="-153" gradientUnits="userSpaceOnUse">
<stop stop-color="#1E1D5B"/>
<stop offset="1" stop-color="#390099"/>
</linearGradient>
</defs>
</svg>
