<svg width="244" height="101" viewBox="0 0 244 101" fill="none" xmlns="http://www.w3.org/2000/svg">
<path fill-rule="evenodd" clip-rule="evenodd" d="M40.8214 28.062C40.8214 12.5906 53.2764 0 68.5738 0H92.8386L87.1553 14.9888H68.5738C65.1463 14.9943 61.8608 16.3737 59.4379 18.8244C57.0149 21.2752 55.6523 24.5972 55.6488 28.062V44.3174L87.1568 44.3174V44.3122H98.3993V86.1942H87.1568V59.3062H55.6488V72.3779C55.6488 87.8508 43.1879 100.438 27.8845 100.438C12.5812 100.438 0.126221 87.8478 0.126221 72.3779C0.126221 56.908 12.5782 44.3174 27.8845 44.3174H40.8214V28.062ZM38.6422 79.6402C40.063 77.4905 40.8214 74.9632 40.8214 72.3779V59.3062H27.8905C25.333 59.3062 22.8329 60.0728 20.7064 61.5091C18.5799 62.9455 16.9225 64.987 15.9438 67.3755C14.9651 69.7641 14.709 72.3924 15.208 74.928C15.7069 77.4637 16.9385 79.7929 18.7469 81.621C20.5553 83.4491 22.8594 84.6941 25.3678 85.1984C27.8761 85.7028 30.4761 85.444 32.8389 84.4546C35.2017 83.4652 37.2213 81.7898 38.6422 79.6402ZM110.407 44.3122V86.1942H112.861H116.107H121.649V61.0175C121.649 59.9091 121.86 58.8799 122.283 57.9298C122.758 56.9797 123.365 56.1352 124.104 55.3963C124.895 54.6573 125.819 54.1031 126.875 53.7337C127.983 53.3114 129.171 53.1003 130.437 53.1003C132.021 52.9947 133.34 53.2586 134.396 53.892C135.504 54.4726 136.323 55.3963 136.85 56.663C137.378 57.9298 137.642 59.5132 137.642 61.4134V86.1942H148.884V60.5425C148.884 56.795 148.33 53.6545 147.222 51.121C146.166 48.5347 144.556 46.6082 142.392 45.3414C140.281 44.0747 137.642 43.4413 134.475 43.4413C132.153 43.4413 129.936 43.9163 127.825 44.8664C125.713 45.8165 123.892 47.0832 122.362 48.6666C122.008 49.0331 121.68 49.4102 121.377 49.7979L121.174 44.3122H110.407ZM159.657 86.1942V44.3122H170.425L170.628 49.7979C170.93 49.4102 171.259 49.0331 171.612 48.6666C173.143 47.0832 174.964 45.8165 177.075 44.8664C179.187 43.9163 181.403 43.4413 183.726 43.4413C186.893 43.4413 189.532 44.0747 191.643 45.3414C193.807 46.6082 195.417 48.5347 196.472 51.121C197.581 53.6545 198.135 56.795 198.135 60.5425V86.1942H186.893V61.4134C186.893 59.5132 186.629 57.9298 186.101 56.663C185.573 55.3963 184.755 54.4726 183.647 53.892C182.591 53.2586 181.271 52.9947 179.688 53.1003C178.421 53.1003 177.234 53.3114 176.125 53.7337C175.07 54.1031 174.146 54.6573 173.354 55.3963C172.615 56.1352 172.008 56.9797 171.533 57.9298C171.111 58.8799 170.9 59.9091 170.9 61.0175V86.1942H165.358H162.112H159.657ZM209.858 44.3122V86.1942H221.101V44.3122H209.858Z" fill="url(#paint0_linear_415_5)"/>
<path d="M243.054 79.5272C243.054 83.1321 240.132 86.0544 236.527 86.0544C232.922 86.0544 230 83.1321 230 79.5272C230 75.9223 232.922 73 236.527 73C240.132 73 243.054 75.9223 243.054 79.5272Z" fill="#F10266"/>
<defs>
<linearGradient id="paint0_linear_415_5" x1="163.013" y1="134.955" x2="215.514" y2="-106.62" gradientUnits="userSpaceOnUse">
<stop stop-color="#1E1D5B"/>
<stop offset="1" stop-color="#390099"/>
</linearGradient>
</defs>
</svg>
